<svg width="29" height="25" viewBox="0 0 29 25" fill="none" xmlns="http://www.w3.org/2000/svg">
<path d="M28.5457 21.285L16.7457 1.04498C16.5288 0.72324 16.2361 0.459694 15.8935 0.277491C15.5509 0.0952869 15.1688 0 14.7807 0C14.3927 0 14.0105 0.0952869 13.6679 0.277491C13.3253 0.459694 13.0327 0.72324 12.8157 1.04498L1.01571 21.285C0.285707 22.535 1.34571 24.005 3.01571 24.005H26.5857C28.2157 24.005 29.2757 22.535 28.5457 21.285ZM16.1357 21.605H13.4757V18.335H16.1857L16.1357 21.605ZM16.3457 10.985L15.2757 14.925H14.3557L13.2157 10.925V4.82498H16.3457V10.985Z" fill="#231F20"/>
</svg>
