<!-- Generated by IcoMoon.io -->
<svg version="1.1" xmlns="http://www.w3.org/2000/svg" width="32" height="32" viewBox="0 0 32 32">
<title>join-talent</title>
<path d="M21.669 17.7c-1.031-0.5-2.106-0.913-3.194-1.206-0.4-0.106-0.519-0.594-0.206-0.863 1.556-1.319 2.438-3.394 2.025-5.675-0.438-2.406-2.413-4.381-4.819-4.806-3.806-0.675-7.119 2.237-7.119 5.919 0 1.838 0.831 3.469 2.131 4.569 0.313 0.262 0.188 0.75-0.213 0.856-2.894 0.781-5.338 1.956-6.95 3.525l-0.731 0.563h16.931c0.375-1.194 1.131-2.206 2.144-2.881zM24.65 17.444c-2.625 0-4.756 2.131-4.756 4.756s2.131 4.756 4.756 4.756 4.756-2.131 4.756-4.756c0-2.631-2.131-4.756-4.756-4.756zM27.688 22.556h-2.681v2.681h-0.719v-2.681h-2.681v-0.719h2.681v-2.681h0.719v2.681h2.681v0.719z"></path>
</svg>
